<svg xmlns="http://www.w3.org/2000/svg" width="57.596" height="55.908" viewBox="0 0 57.596 55.908">
  <g id="Gruppe_263" data-name="Gruppe 263" transform="translate(0 -0.28)">
    <path id="Pfad_1" data-name="Pfad 1" d="M35.2,3.552c.786.055,1.351.124,2.026.221a14.282,14.282,0,0,1,1.5.262,16.991,16.991,0,0,1,1.764.51A27.3,27.3,0,0,1,49.7,9.726a19.811,19.811,0,0,1,4.272,6.216c.083.193.152.427.221.62.317.91.593,1.833.91,2.729.041.1.634,2.026.882,2.825.207.689.372,1.42.648,2.109a13.086,13.086,0,0,1,.648,2.054c.1.455.221,1.364.221,1.433v2.012c0,.083-.179,1.475-.345,2.219-.041.193-.124.427-.179.648a5.349,5.349,0,0,1-.262.882c-.069.193-.138.427-.234.648-.1.262-.234.51-.331.786-.51,1.53-4.383,6.23-5.981,6.23a.6.6,0,0,1-.372-.276c-.055-.1.124-.207.234-.276a15.137,15.137,0,0,0,5.182-6.023,10.246,10.246,0,0,0,.854-2.439,14.443,14.443,0,0,0,.386-2.246,7.919,7.919,0,0,0-.041-2.109c-.014-.069-.069-.276-.069-.276a.837.837,0,0,0-.165.317,2.664,2.664,0,0,1-1.847,1.378,4.388,4.388,0,0,1-.662.124,9.712,9.712,0,0,1-4.011-1.53c-.331-.221-.717-.4-1.075-.606-1.144-.689-2.329-1.406-3.446-2.15-1.461-.965-2.936-2.109-4.4-2.977-1.213-.717-3.528-2.095-3.6-2.095-.234,0-.9,1.213-.9,1.254,0,.083.262.565.372.868a1.911,1.911,0,0,1,.041.455c0,.069.1,1.158.1,1.24v2.343l-.717,5.141a13.32,13.32,0,0,1-.11,1.957h-.11a7.007,7.007,0,0,1-.579-1.047c-.262-.606-.469-1.24-.675-1.861a12.633,12.633,0,0,1-.73-2.219A8.714,8.714,0,0,1,33.6,26.94a8.269,8.269,0,0,1,.069-1.42c0-.083-.028-.358-.028-.441a.309.309,0,0,0-.11-.207c-.193.1-.372.455-.455.565-.207.331-.469.744-.717,1.116-.138.193-.345.372-.51.593a11.632,11.632,0,0,1-.7.979c-1.047,1.061-2.756,2.439-3.611,2.6a1.1,1.1,0,0,0-.358,0c-1.53-.3-2.963-2.646-3.4-3.418a7.316,7.316,0,0,0-.634-.744,7.04,7.04,0,0,0-1.006-1.13,1.775,1.775,0,0,0-.358.675,20.464,20.464,0,0,1-1.7,3.06c-.207.358-.372.772-.579,1.144-.441.744-1.006,1.433-1.475,2.219a13.511,13.511,0,0,0-.579,1.433C17.279,34.355,17,34.6,17,35c0,.083.028.11.11.11s.7-.358,1.075-.482c1.42-.482,2.908-.979,4.355-1.447.524-.165,1.034-.441,1.557-.634.937-.331,1.916-.648,2.867-.9.51-.138,1.047-.179,1.557-.289.744-.165,1.64-.579,2.371-.689a9.177,9.177,0,0,0,1.364-.413c.124-.041.248-.179.331-.179.179,0,.4.482.455.606a6.049,6.049,0,0,1,.124.648,4.612,4.612,0,0,0,.331.841c.786,1.723,1.654,3.473,2.384,5.21.441,1.061.689,2.246,1.171,3.39.538,1.254,1.075,2.508,1.53,3.776.165.469.358,1.034.579,1.557a7.771,7.771,0,0,0,1.268,1.847c.593.7,1.681,1.571,1.681,2.288a6.3,6.3,0,0,1-.372,1.268A3.1,3.1,0,0,1,39.62,53.36c-.138.014-.289.1-.455.11a2.382,2.382,0,0,0-.965.372,9.75,9.75,0,0,0-.841.551c-.069.055-.124.165-.234.234a.837.837,0,0,1-.345.083c-.152,0-.331-.069-.331-.207a.839.839,0,0,1,.193-.358.107.107,0,0,0-.014-.041c-.289.1-.8.427-.868.427a.855.855,0,0,1-.345-.138.527.527,0,0,1,.124-.248v-.083a.285.285,0,0,0-.11-.028c-.069,0-.7.386-.786.386a1.405,1.405,0,0,1-.345-.11c.069-.11.193-.248.289-.4-.028-.028,0-.055-.083-.055-.207,0-.441.386-1.047.386-.083,0-.358-.1-.538-.138.069-.11.193-.234.193-.317s0-.041-.028-.069c-.441.1-.551.455-.91.455a1.731,1.731,0,0,1-.4-.069c0-.041-.041-.055-.041-.138,0-.551.854-.882,1.282-1.227a11.336,11.336,0,0,1,2.219-1.075,5.044,5.044,0,0,0,1.6-1.737,6.186,6.186,0,0,0,1.1-1.916,3.567,3.567,0,0,0,0-1.378,6.415,6.415,0,0,0-.248-1.061c-.11-.248-.124-.965-.648-.965-.083,0-2.577.427-3.831.62-.813.124-1.654.221-2.467.289-.744.055-1.2.069-1.654.1l-5.141.028a20.689,20.689,0,0,1-2.274.069.741.741,0,0,0-.289.069l-3.06-.028c-.331-.028-.689-.069-1.047-.124a7.67,7.67,0,0,1-2.288-.7,4.536,4.536,0,0,1-1.75-2.164,23.222,23.222,0,0,0-2.3,3.818,22.443,22.443,0,0,0-1.268,2.288A5.9,5.9,0,0,0,9.534,50a5.352,5.352,0,0,1-1.6,2.936.333.333,0,0,0-.1.234.162.162,0,0,0,.179.165l1.654-.165,2.632-.1h3.583l4.328.165a44.227,44.227,0,0,1,6.023.841c.91.207,3.694.827,3.694,2.109s-2.164,1.737-2.743,1.943a13.95,13.95,0,0,1-2.481.524c-1.158.207-1.819.276-2.991.386-.689.069-1.075.11-1.75.152-1.516.138-2.384.179-3.9.193-1.392.014-2.191,0-3.583-.069L9.493,59.19A29.416,29.416,0,0,1,6.557,58.9,17.376,17.376,0,0,1,.3,57.288a.925.925,0,0,1-.4-.813c0-.358.8-1.075.758-1.53-.055-.551.551-.979.827-1.475a5.53,5.53,0,0,0,.372-.937A12.106,12.106,0,0,1,4.09,49.377c.482-.606.923-1.254,1.337-1.847a5.773,5.773,0,0,0,.469-.979c.248-.551.524-1.116.73-1.654.152-.386.3-.786.427-1.171.028-.083,1.185-4.162,1.392-4.975a40.662,40.662,0,0,1,2.508-7.125c.055-.124,1.833-3.459,2.508-5.017.551-1.282,1.1-2.632,1.6-3.942.441-1.185.744-2.15,1.323-3.473.248-.551.441-1.02.662-1.42a3.235,3.235,0,0,1,.152.331c.207.3.524.551.758.841a9.46,9.46,0,0,1,.538,1.309,5.409,5.409,0,0,1-.358.565,3.42,3.42,0,0,0-.179.482c-.041.124-.083.262-.124.386-.179.551-.358,1.158-.593,1.7s-.482,1.061-.744,1.557c-.386.717-.841,1.613-1.144,2.357-.469,1.2-1.2,2.453-1.805,3.638A52.347,52.347,0,0,0,10.953,37.3c-.069.193-.207.4-.276.593-.538,1.557-1.1,3.1-1.53,4.617a24.517,24.517,0,0,1-2.577,6.216,1,1,0,0,0-.083.289,3,3,0,0,1-.331.62,1.907,1.907,0,0,1-1.406.854H4.214a18.952,18.952,0,0,0-2.453,4.093c-.055.124-.1.3-.152.427a8.557,8.557,0,0,1-.358.813,8.88,8.88,0,0,0-.565.841c0,.179.221.179.234.179.469,0,1.227-1.268,1.475-1.254a4.83,4.83,0,0,0,2.4-.579c.193-.083.51-.041.744-.221.152-.124.248-.358.427-.538.207-.207.538-.3.689-.524a12.843,12.843,0,0,0,.923-1.557c.138-.262.744-.91.744-1.185,0-.083-.069-.3-.069-.386s.193-.482.193-.565v-.427a5.116,5.116,0,0,1,.3-1.047c.689-1.433,1.461-2.894,2.191-4.328a40.687,40.687,0,0,1,2.26-4.08h.152a5.267,5.267,0,0,1,.345.855,2.157,2.157,0,0,1,.193.524,3.908,3.908,0,0,0,2.439,2.508c.5.069.979.193,1.461.289a11.316,11.316,0,0,0,1.53.234h4.093c.083,0,.5-.069,1.309-.1l5.265-.028a60.227,60.227,0,0,0,6.767-.992.2.2,0,0,0,.179-.234c0-.083-1.089-3.115-1.571-4.686a17.629,17.629,0,0,0-.854-1.819c-.469-1.034-.979-2.095-1.447-3.129a8.3,8.3,0,0,0-.455-.937.249.249,0,0,0-.207-.1c-.083,0-2.908,1.116-4.383,1.613-.662.221-1.378.372-2.054.606-1.309.469-2.619,1.13-3.969,1.668-.179.069-.427.124-.62.221A8.346,8.346,0,0,0,17.6,40.8c-.028.124-.083.289-.124.455-.055.221-.124.482-.193.73a.425.425,0,0,1-.124-.276,6.458,6.458,0,0,0-.675-2.8,3.726,3.726,0,0,0-.662-.772,2.934,2.934,0,0,0-1.034-.331c-.179-.055-.179-.179-.179-.345,0-.345.413-.841.675-1.213a12.487,12.487,0,0,0,1.2-2.109,20.036,20.036,0,0,1,1.764-3.321c.3-.441.5-.979.841-1.53.923-1.447,2.481-4.438,2.481-4.521s-.5-.593-.648-.91c-.413-.827-1.144-1.819-1.626-2.674a2.193,2.193,0,0,1-.262-.717V20.2a14.8,14.8,0,0,1,1.447,1.7,14.388,14.388,0,0,0,1.53,2.288c.662.675,1.268,1.447,1.888,2.205.441.538.786,1.158,1.227,1.7.593.73,1.709,1.723,2.426,1.723A1.774,1.774,0,0,0,28,29.724a3.793,3.793,0,0,0,.965-.73c.248-.207.565-.386.841-.579A6.069,6.069,0,0,0,31.02,26.83c.234-.3.524-.579.73-.882.469-.675.8-1.406,1.337-2.081.8-1.006,1.668-2.095,2.467-3.184.193-.262.358-.634.606-.937s.372-.4.579-.4c.083,0,1.5.469,2.233.73,3.142,1.116,6.354,2.908,9.523,3.184a8.618,8.618,0,0,0,1.461,0,3.105,3.105,0,0,0,.744-.124A2.729,2.729,0,0,0,52.369,21.8c.014-.028.289-.8.427-1.323a6.025,6.025,0,0,0,.165-.675,5.7,5.7,0,0,0,0-.717c0-.083-.124-.579-.193-.868a12.14,12.14,0,0,0-3.1-5.692,13.487,13.487,0,0,0-4.6-3.032,6.7,6.7,0,0,0-1.1-.331A4.781,4.781,0,0,0,42.391,9a6.159,6.159,0,0,0-.868.028l-.427.069a4.475,4.475,0,0,0-2.508,1.075,17.815,17.815,0,0,0-3.473,4.8c-.62,1.075-2.012,3.39-2.054,3.473-.413.8-1.9,3.638-2.178,4.2-.069.138-2.3,3.17-3.115,3.17-.565,0-1.378-.744-1.943-1.3-.165-.165-1.75-1.681-2.288-2.288-.441-.482-1.13-1.144-1.53-1.654-.358-.469-1.888-2.246-2.15-2.6-.551-.772-1.1-1.6-1.613-2.412-.565-.91-1.158-1.847-1.778-2.729a16.726,16.726,0,0,0-1.171-1.53c-.469-.524-1.1-.73-1.613-1.227-.069-.069-.262-.041-.358-.11-.221-.179-.455-.482-.717-.73-.152-.138-.386-.234-.551-.372a.779.779,0,0,1-.179-.482.268.268,0,0,1,.041-.179.177.177,0,0,0,.248-.165c0-.083-.193-.234-.193-.3,0-.165.276-.358.427-.358a.423.423,0,0,0,.124-.221c0-.083-.165-.248-.165-.331a2.548,2.548,0,0,1,.386-.524c.055-.1.11-.7.441-.524a3.5,3.5,0,0,1,2.178-1.5,16.334,16.334,0,0,1,1.709-.3c.083,0,.413.028.482.028s.648.152.979.221A6.253,6.253,0,0,1,22.02,7.4c.069.152.221.331.289.51a7.841,7.841,0,0,1,.827,2.246c0,.083.165.675.221,1.02h-.124c-.041-.11-.124-.234-.165-.331a5.462,5.462,0,0,0-.317-.744c-.221-.4-1.668-2.329-2.522-2.329h-.441a1.547,1.547,0,0,0-.51.165c-.11.069-.165.221-.3.317-.262-.455-.7-2.77-1.585-2.77-.083,0-.524.331-.813.469-.358.165-.937.069-1.254.427a1.73,1.73,0,0,0,.648.413c.152.083.331.345.413.345a.6.6,0,0,0,.579-.565c.055-.317.221-.565.469-.565s.345.854.345.9a6.084,6.084,0,0,1-.289.662,1.6,1.6,0,0,0-.041.51c0,.455.028.565.028.648s.165.551.207.813a5.9,5.9,0,0,0,.138,1.006,11.294,11.294,0,0,0,1.819,3.308c.165.207.289.5.441.717a14.119,14.119,0,0,0,1.93,2.481c.482.455.979,1.006,1.475,1.488.152.152,2.908,2.729,3.4,2.729a3.172,3.172,0,0,0,.662-.482A8.673,8.673,0,0,0,29.642,17.4c.221-.469.317-.758.524-1.24.606-1.447,1.02-2.233,1.557-3.707.152-.427.262-.758.372-1.116a9.333,9.333,0,0,0,.3-1.709c0-.179.014-.289,0-.469a3.055,3.055,0,0,0-.083-.606,3.216,3.216,0,0,0-2.095-2.467c-.179-.083-.3-.1-.5-.165a7.016,7.016,0,0,0-1.819-.441,5.014,5.014,0,0,0-.91,0l-3.28.482a.373.373,0,0,1-.207-.041V5.743c.041-.041.041-.069.069-.1a21.994,21.994,0,0,1,5.472-1.709c.069-.014,1.819-.331,3-.413A21.706,21.706,0,0,1,35.2,3.552Z" transform="translate(0.1 -3.2)" fill="#fff" fill-rule="evenodd"/>
    <path id="Pfad_2" data-name="Pfad 2" d="M140.586,41c.345,0,1.116.3,1.116.9v.579c0,.083-.069.3-.083.427a2.761,2.761,0,0,1-.152.992c-.041,0-.069-.028-.124-.041.028-.3.055-.5.055-.579s-.028-.234-.028-.3a6.327,6.327,0,0,0-.772-.992h-.482c-.248,0-.317-.317-.317-.427C139.828,41.1,140.3,41,140.586,41Z" transform="translate(-120.519 -35.549)" fill="#fff" fill-rule="evenodd"/>
    <path id="Pfad_3" data-name="Pfad 3" d="M83.706,49.8c.083,0,.138.069.207.11v.551c0,.083-.165.606-.165.689a5.455,5.455,0,0,0,.3,1.006c.386.937,1.861,1.985,2.522,2.991.165.248.717,1.613,1.089,1.613.083,0,.689-.289.758-.289.207,0,.138.138.345.372a3.453,3.453,0,0,1-1.158.662c-.565,0-.937-.951-1.116-1.24A20.454,20.454,0,0,0,84.147,53.4a5.06,5.06,0,0,1-1.047-2.15v-.524C83.1,50.558,83.4,49.8,83.706,49.8Z" transform="translate(-71.633 -43.136)" fill="#fff" fill-rule="evenodd"/>
    <path id="Pfad_4" data-name="Pfad 4" d="M280.408,166.8a6.573,6.573,0,0,1,1.158,1.02,10.2,10.2,0,0,1,.8,2.054c.014.055.744,3.68.73,4.438v4.962a2.6,2.6,0,0,1-.606-1.709v-1.282c0-.083-.069-.62-.124-1.171-.069-.579-.152-1.2-.234-1.792a21.8,21.8,0,0,0-.593-2.15c-.179-.62-.345-1.282-.538-1.888a6.429,6.429,0,0,0-.3-.62,6.961,6.961,0,0,1-.386-1.144,4.905,4.905,0,0,1-.138-.5C280.146,167.034,280.256,166.8,280.408,166.8Z" transform="translate(-241.542 -144.011)" fill="#fff" fill-rule="evenodd"/>
    <path id="Pfad_5" data-name="Pfad 5" d="M302.106,267.4a4.066,4.066,0,0,0,1.888.455c.4,0,1.406-.124,1.42-.124a3.965,3.965,0,0,1,1.034,0,2.876,2.876,0,0,1,1.971,2.136,4.165,4.165,0,0,1-.193.62c-.455,1.392-2.095,1.709-3.032,2.674-.262.262-.152.675-.427,1.034-.1.138-.165.358-.276.524-.083.124-.9.951-.9,1.171a2.326,2.326,0,0,0,.124.372c.055.165.124.331.179.482.207.482.937,1.5.937,1.6v.441c0,.083-.152.5-.193.717a2.371,2.371,0,0,1-1.158,1.764,9.113,9.113,0,0,1-1.737.469c-.124.028-.262.11-.331,0s-.1-.138.069-.289c.358-.138.744-.276,1.144-.414a2.179,2.179,0,0,0,.854-.662,5.388,5.388,0,0,0,.4-1.42c0-.372-.221-.551-.4-.965-.207-.455-.427-.992-.648-1.5a16.937,16.937,0,0,0-1.089-1.985,3.959,3.959,0,0,1-.221-.648,13.193,13.193,0,0,1-.469-1.681c-.055-.262-.138-.593-.138-.662-.083-.524-.221-1.544-.221-1.626a1.63,1.63,0,0,1,.413-.538.667.667,0,0,1,.041.248c.1.537.207.91.276,1.364.028.165.055.358.069.524.014.124.055.372.083.5.055.193,1.061,3.1,1.433,3.1.414,0,1.268-2,1.461-2.329.179-.3.593-.469.813-.634,1.061-.855,2.274-1.24,2.274-2.357a.342.342,0,0,0-.11-.276,5.308,5.308,0,0,0-1.351-1.13,1.62,1.62,0,0,0-.4-.069c-.083,0-.786.165-1.3.193-.276.014-.7,0-.7,0a8.788,8.788,0,0,1-1.213-.5A1.473,1.473,0,0,1,302.106,267.4Z" transform="translate(-259.243 -230.746)" fill="#fff" fill-rule="evenodd"/>
    <path id="Pfad_6" data-name="Pfad 6" d="M231.776,373.4c.083,0,.565.262.841.345a2.3,2.3,0,0,0,.455.028c.138.014.345.179.427.179h.551c.083,0,.772.193.854.193s.248-.069.331-.069h.841c.083,0,1.075.124,1.158.124a1.721,1.721,0,0,0,.593-.083c.207-.083.51-.441.593-.441,0,0,.165-.069.207,0,.028.041,0,.138,0,.138,0,.083-.207.3-.3.4a2.149,2.149,0,0,1-1.268.469l-1.3-.165c-.165.028-.441.1-.524.1h-.648c-.083,0-1.544-.276-2.288-.413a1.293,1.293,0,0,1-.8-.648C231.541,373.469,231.762,373.4,231.776,373.4Z" transform="translate(-199.581 -322.137)" fill="#fff" fill-rule="evenodd"/>
  </g>
</svg>
